<svg id="Layer_1" xmlns="http://www.w3.org/2000/svg" viewBox="0 0 512 512"><style>.st0{fill:#FFFFFF;}</style><path class="st0" d="M440.5 190.1c-1.3-28.2-11.6-56.5-28.1-76.7-25.9-31.7-66-50.7-107.3-50.7-35.8 0-68.4 14.3-92.7 40.4-12.6-4.9-26.4-7.3-41-7.3-38.2 0-76.1 19.6-98.8 51-13.7 18.8-21 42.8-20.4 66.5-45.5 32.1-58 86.5-49.8 127.3 12.1 60.9 63.5 106.8 119.5 106.8h260.7c63.1 0 118.1-50.8 128-118.3 7-47.9-12.1-108.6-70.1-139zM493 326.6c-8.6 58.8-56.1 103-110.4 103H121.9c-47.7 0-91.6-39.7-102-92.5-7.2-36.1 4.3-84.6 46.3-111.7l4.4-2.9-.4-5.2c-1.5-21.3 4.6-43.2 16.8-60 19.4-26.9 51.8-43.6 84.4-43.6 14.5 0 27.9 2.8 39.7 8.2l6.1 2.8 4.4-5.2c21.2-25.2 50.8-39 83.4-39 36 0 70.9 16.5 93.5 44.2 15.1 18.5 24.1 45.1 24.2 71.1v5.6l5.1 2.4c53.7 25.4 71.4 80 65.2 122.8z"/><path class="st0" d="M332 283c7.9-2.1 14.6-5.6 19.9-10.6 8.7-8.3 13-19.3 13-33.1s-4.4-25.1-13.2-33.8c-8.5-8.4-19.8-12.6-33.6-12.6h-46.6l.1 22.8H318c7.3 0 12.9 2.2 16.8 6.8 3.8 4.5 5.8 10.1 5.8 16.9 0 4.5-.7 8.2-2.1 11.1-1.4 2.9-3.1 5.3-5.3 7-2.2 1.7-4.6 2.9-7.3 3.5-2.7.6-5.3.9-7.9.9h-46.5v22.8h34l38.1 62.8c1.1 1.8 2.5 3.2 4.2 4.2 1.8 1 3.7 1.5 5.8 1.5 3.2 0 6-1.2 8.4-3.5s3.5-5 3.5-8c0-2.1-.6-4.1-1.8-6.1L332 283zM247.6 190.7c-3.4 0-6.2 1.2-8.6 3.5s-3.5 5.2-3.5 8.4v58.9h-65v-58.9c0-3.3-1.2-6.1-3.6-8.4-2.5-2.3-5.3-3.5-8.5-3.5-3.4 0-6.2 1.2-8.6 3.5s-3.5 5.2-3.5 8.4v138.6c0 3.3 1.2 6.1 3.6 8.4 2.4 2.3 5.3 3.5 8.7 3.5 3.2 0 6-1.2 8.4-3.5 2.3-2.3 3.6-5.2 3.6-8.4v-60.8h65v60.8c0 3.3 1.2 6.1 3.6 8.4 2.5 2.3 5.3 3.5 8.7 3.5 3.4 0 6.1-1.2 8.4-3.5 2.3-2.3 3.4-5.2 3.4-8.4V202.6c0-3.3-1.2-6.1-3.6-8.4s-5.2-3.5-8.5-3.5z"/></svg>