<?xml version="1.0" encoding="utf-8"?>
<!-- Generator: Adobe Illustrator 23.0.1, SVG Export Plug-In . SVG Version: 6.00 Build 0)  -->
<svg version="1.1" id="Layer_1" xmlns="http://www.w3.org/2000/svg" xmlns:xlink="http://www.w3.org/1999/xlink" x="0px" y="0px"
	 viewBox="0 0 960 111" style="enable-background:new 0 0 960 111;" xml:space="preserve">
<style type="text/css">
	.st0{fill:#FFFFFF;}
	.st1{fill:#FFFFFF;stroke:#000000;stroke-miterlimit:10;}
</style>
<g>
	<polygon class="st0" points="76.2,13.8 76.2,64.8 37.4,13.8 20.6,13.8 20.6,96.6 38.6,96.6 38.6,43.9 78.7,96.6 94.2,96.6 
		94.2,13.8 	"/>
	<g>
		<polygon class="st0" points="120,13.8 120,96.6 183,96.6 183,80.4 138.1,80.4 138.1,63 177.1,63 177.1,46.8 138.1,46.8 138.1,30 
			182.4,30 182.4,13.8 		"/>
		<g>
			<path class="st0" d="M245.6,12.4c-25.5,0-44.1,19.3-44.1,42.8v0.2c0,23.5,18.3,42.6,43.9,42.6c25.5,0,44.1-19.3,44.1-42.8V55
				C289.5,31.4,271.2,12.4,245.6,12.4 M245.6,81.2c-14.7,0-25.1-11.8-25.1-26V55c0-14.2,10.2-25.8,24.8-25.8
				c14.7,0,25.1,11.8,25.1,26v0.2C270.5,69.6,260.3,81.2,245.6,81.2"/>
			<path class="st0" d="M351.4,12.4c-25.1,0-43.4,19.3-43.4,42.8v0.2c0,24.5,17.7,42.6,43.5,42.6c15.1,0,26.8-5.9,35.4-13.1v-36h-36
				v15.7h18.3v11.8c-4.6,3.3-10.5,5-17.1,5c-14.7,0-25.1-11.1-25.1-26.3v-0.2c0-14.1,10.5-25.8,23.8-25.8c9.6,0,15.3,3.1,21.6,8.4
				l11.5-13.8C375.3,16.4,366.3,12.4,351.4,12.4"/>
			<path class="st0" d="M450.7,12.4c-25.5,0-44.1,19.3-44.1,42.8v0.2C406.6,79,425,98,450.5,98s44.1-19.3,44.1-42.8V55
				C494.6,31.4,476.3,12.4,450.7,12.4 M450.7,81.2c-14.7,0-25.1-11.8-25.1-26V55c0-14.2,10.2-25.8,24.8-25.8
				c14.7,0,25.1,11.8,25.1,26v0.2C475.6,69.6,465.4,81.2,450.7,81.2"/>
		</g>
	</g>
	<polygon class="st0" points="567.7,13.8 546.1,72.1 524.4,13.8 504.3,13.8 537.8,97.2 553.9,97.2 587.4,13.8 	"/>
</g>
<g>
	<path class="st1" d="M643.7,83.2c-9,0-16.5-2.8-22.5-8.6s-9-13.3-9-22.3s3-16.7,9-22.3s13.5-8.6,22.5-8.6c10.5,0,18.5,4.5,24,13.3
		l-9,4.7c-1.5-2.6-3.6-4.7-6.4-6.4s-5.6-2.4-8.8-2.4c-6,0-10.9,2.1-14.8,6.2c-3.9,4.1-5.8,9.4-5.8,15.5c0,6.4,1.9,11.4,5.8,15.5
		s8.8,6.2,14.8,6.2c3.2,0,6-0.7,8.8-2.4c2.8-1.7,4.9-3.7,6.4-6.4l9,4.5C662.1,78.7,654,83.2,643.7,83.2z"/>
	<path class="st1" d="M695.8,83.2c-6.7,0-12.2-2.2-16.3-6.6c-4.1-4.5-6.2-9.9-6.2-16.3s2.1-11.8,6.2-16.1c4.1-4.3,9.5-6.6,16.3-6.6
		s12.2,2.2,16.1,6.6c4.1,4.3,6.2,9.7,6.2,16.1s-2.1,11.8-6.2,16.3C707.7,80.9,702.3,83.2,695.8,83.2z M683.2,60.3
		c0,3.9,1.1,7.5,3.4,10.3c2.2,2.8,5.2,4.1,9.2,4.1s6.9-1.3,9.2-4.1c2.2-2.8,3.4-6.2,3.4-10.3s-1.1-7.5-3.4-10.3
		c-2.2-2.8-5.2-4.1-9.2-4.1s-6.9,1.3-9.2,4.1C684.3,52.9,683.2,56.2,683.2,60.3z"/>
	<path class="st1" d="M766.3,82.1H757V54.9c0-3.2-0.7-5.6-2.2-6.9s-3.6-2.1-6.2-2.1c-2.6,0-4.7,0.6-6.7,1.7s-3.6,2.4-4.9,4.1v30.3
		h-9.4V38.6h9.4v5.8c1.5-1.9,3.7-3.6,6.6-4.9c2.8-1.3,5.8-2.1,9-2.1c4.7,0,8.2,1.1,10.5,3.6c2.2,2.4,3.6,5.8,3.6,10.3v30.7H766.3z"
		/>
	<path class="st1" d="M817.2,82.1h-9.4V54.9c0-3.2-0.7-5.6-2.2-6.9c-1.5-1.3-3.6-2.1-6.2-2.1s-4.7,0.6-6.7,1.7
		c-2.1,1.1-3.6,2.4-4.9,4.1v30.3h-9.4V38.6h9.4v5.8c1.5-1.9,3.7-3.6,6.6-4.9s5.8-2.1,9-2.1c4.7,0,8.2,1.1,10.5,3.6
		c2.2,2.4,3.6,5.8,3.6,10.3v30.7H817.2z"/>
	<path class="st1" d="M850,83.2c-6.9,0-12.5-2.1-16.8-6.4c-4.3-4.3-6.4-9.7-6.4-16.1c0-6.4,2.1-12,6.2-16.3s9.4-6.7,15.7-6.7
		s11.6,2.2,15.4,6.6c3.9,4.5,5.8,10.1,5.8,16.8v2.2h-33.5c0.4,3.4,1.7,6,4.1,8.2c2.4,2.2,5.6,3.4,9.5,3.2c5.1,0,9.2-1.5,12.4-4.7
		l4.3,6.2C862.7,80.9,856.9,83.2,850,83.2z M857.7,49.1c-2.1-2.2-5.1-3.4-8.8-3.4c-3.7,0-6.7,1.1-8.8,3.4c-2.1,2.2-3.2,4.7-3.4,7.7
		h24.5C860.9,53.8,859.7,51.4,857.7,49.1z"/>
	<path class="st1" d="M900,83.2c-6.9,0-12.4-2.1-16.7-6.4c-4.3-4.3-6.4-9.7-6.4-16.5c0-6.6,2.1-12,6.4-16.3
		c4.3-4.3,9.7-6.6,16.7-6.6c6.9,0,12.4,2.6,16.1,7.7l-6.2,5.6c-2.4-3.4-5.6-5.1-9.7-5.1s-7.3,1.3-9.7,4.1c-2.4,2.6-3.6,6.2-3.6,10.3
		c0,4.3,1.1,7.7,3.6,10.5c2.4,2.6,5.6,4.1,9.7,4.1s7.3-1.7,9.7-5.2l6.2,5.8C912.2,80.6,906.9,83.2,900,83.2z"/>
	<path class="st1" d="M935.6,69.5c0,3.6,1.5,5.2,4.5,5.2c1.5,0,2.8-0.6,3.7-1.7l2.2,7.1c-2.1,1.9-5.1,2.8-8.8,2.8
		c-7.5,0-11.2-3.7-11.2-11.2V46.9h-7.1v-8.2h7.1v-12h9.4v12h8.8v8.2h-8.8v22.7H935.6z"/>
</g>
</svg>
