<?xml version="1.0" encoding="utf-8"?>
<!-- Generator: Adobe Illustrator 21.1.0, SVG Export Plug-In . SVG Version: 6.00 Build 0)  -->
<svg version="1.1" id="Layer_1" xmlns="http://www.w3.org/2000/svg" xmlns:xlink="http://www.w3.org/1999/xlink" x="0px" y="0px"
	 viewBox="0 0 600 111" style="enable-background:new 0 0 600 111;" xml:space="preserve">
<style type="text/css">
	.st0{fill:#FFFFFF;}
</style>
<g>
	<polygon class="st0" points="75.2,13.8 75.2,64.8 36.4,13.8 19.6,13.8 19.6,96.6 37.6,96.6 37.6,43.9 77.7,96.6 93.2,96.6 
		93.2,13.8 	"/>
	<g>
		<polygon class="st0" points="119,13.8 119,96.6 182,96.6 182,80.4 137.1,80.4 137.1,63 176.1,63 176.1,46.8 137.1,46.8 137.1,30 
			181.4,30 181.4,13.8 		"/>
		<g>
			<path class="st0" d="M244.6,12.4c-25.5,0-44.1,19.3-44.1,42.8v0.2c0,23.5,18.3,42.6,43.9,42.6c25.5,0,44.1-19.3,44.1-42.8V55
				C288.5,31.4,270.2,12.4,244.6,12.4 M244.6,81.2c-14.7,0-25.1-11.8-25.1-26V55c0-14.2,10.2-25.8,24.8-25.8
				c14.7,0,25.1,11.8,25.1,26v0.2C269.5,69.6,259.3,81.2,244.6,81.2"/>
			<path class="st0" d="M350.4,12.4c-25.1,0-43.4,19.3-43.4,42.8v0.2c0,24.5,17.7,42.6,43.5,42.6c15.1,0,26.8-5.9,35.4-13.1v-36h-36
				v15.7h18.3v11.8c-4.6,3.3-10.5,5-17.1,5c-14.7,0-25.1-11.1-25.1-26.3v-0.2c0-14.1,10.5-25.8,23.8-25.8c9.6,0,15.3,3.1,21.6,8.4
				l11.5-13.8C374.3,16.4,365.3,12.4,350.4,12.4"/>
			<path class="st0" d="M449.7,12.4c-25.5,0-44.1,19.3-44.1,42.8v0.2C405.6,79,424,98,449.5,98s44.1-19.3,44.1-42.8V55
				C493.6,31.4,475.3,12.4,449.7,12.4 M449.7,81.2c-14.7,0-25.1-11.8-25.1-26V55c0-14.2,10.2-25.8,24.8-25.8
				c14.7,0,25.1,11.8,25.1,26v0.2C474.6,69.6,464.4,81.2,449.7,81.2"/>
		</g>
	</g>
	<polygon class="st0" points="566.7,13.8 545.1,72.1 523.4,13.8 503.3,13.8 536.8,97.2 552.9,97.2 586.4,13.8 	"/>
</g>
</svg>
